# xmcd
#
# Track frame offsets: 
#        150
#        27214
#        48167
#        73713
#        96036
#        118307
#        149856
#        159624
#
# Disc length: 2779 seconds
#
# Revision: 0
# Processed by: cddbd v1.5.2PL0 Copyright (c) Steve Scherf et al.
# Submitted via: ExactAudioCopy v1.0b1
#
DISCID=730ad908
DTITLE=Webster Lewis -  On The Town
DYEAR=1976
DGENRE=Funk
TTITLE0=On The Town 
TTITLE1=Saturday Night Steppin' Out 
TTITLE2=Since I've Been Gone 
TTITLE3=Love Is The Way 
TTITLE4=Do It With Style
TTITLE5=Song Of Joy 
TTITLE6=Goodnight Baby Girl
TTITLE7=Let's Do It Again
EXTD=
EXTT0=
EXTT1=
EXTT2=
EXTT3=
EXTT4=
EXTT5=
EXTT6=
EXTT7=
PLAYORDER=
